<svg width="800" height="800" viewBox="0 0 800 800" fill="none" xmlns="http://www.w3.org/2000/svg">
<path fill-rule="evenodd" clip-rule="evenodd" d="M193.576 130C180.107 112.442 183.394 87.2676 200.952 73.7988C218.51 60.2896 243.684 63.6143 257.153 81.1719C270.662 98.7299 267.335 123.904 249.777 137.373C232.219 150.842 207.045 147.558 193.576 130ZM282.487 233.662C295.996 251.22 292.669 276.394 275.112 289.863C257.554 303.372 232.379 300.048 218.911 282.49C205.442 264.933 208.729 239.798 226.287 226.289C243.844 212.82 269.018 216.105 282.487 233.662ZM66.4227 267.734C52.9137 250.177 56.2411 225.002 73.7988 211.533C91.3565 198.064 116.49 201.348 129.999 218.906C143.468 236.464 140.182 261.638 122.624 275.107C105.066 288.616 79.8917 285.292 66.4227 267.734ZM399.138 719.824C276.595 719.824 169.966 650.682 116.01 549.385C364.063 570.43 570.466 364.7 549.381 116.006C650.679 169.962 719.828 276.597 719.828 399.141C719.828 575.961 575.958 719.824 399.138 719.824ZM433.372 0C581.771 278.439 277.116 581.047 0 433.369C17.197 636.165 187.323 800 399.138 800C620.534 800 800 620.537 800 399.141C800 187.205 636.047 17.1968 433.372 0Z" fill="white"/>
</svg>
